<?xml version="1.0" encoding="UTF-8"?>
<svg id="Camada_1" data-name="Camada 1" xmlns="http://www.w3.org/2000/svg" viewBox="0 0 43.77 60">
  <defs>
    <style>
      .cls-1 {
        fill: #1e1e1e;
      }
    </style>
  </defs>
  <path class="cls-1" d="m42.67,18.82l-2.82-3.42c-.39-.47-.62-1.04-.68-1.64l-.42-4.41c-.22-2.29-2.04-4.11-4.33-4.33l-4.41-.42c-.6-.06-1.17-.29-1.64-.68l-3.42-2.82c-1.78-1.46-4.35-1.46-6.13,0l-3.42,2.82c-.47.39-1.04.62-1.64.68l-4.41.42c-2.29.22-4.11,2.04-4.33,4.33l-.42,4.41c-.06.6-.29,1.17-.68,1.64l-2.82,3.42c-1.46,1.78-1.46,4.35,0,6.13l2.82,3.42c.39.47.62,1.04.68,1.64l.42,4.41c.22,2.29,2.04,4.11,4.33,4.33l2.69.26-6.4,15.3c-.17.42-.1.89.2,1.22.3.34.76.47,1.19.35l5.55-1.57s.05,0,.06.02l2.78,5.06c.21.38.59.6,1.02.6.02,0,.04,0,.06,0,.45-.02.84-.29,1.02-.71l6.76-16.15c.23-.13.45-.28.66-.46l3.42-2.82c.43-.36.95-.58,1.5-.66l6.12,14.63-4.33-1.22c-.82-.23-1.69.13-2.1.88l-2.17,3.94-2.87-6.87c-.19-.45-.71-.67-1.16-.48-.45.19-.67.71-.48,1.16l3.37,8.05c.18.41.56.69,1.02.71.02,0,.04,0,.06,0,.43,0,.81-.23,1.02-.6l2.78-5.06s.04-.03.06-.02l5.55,1.57c.43.12.89-.01,1.19-.35.3-.34.38-.81.2-1.22l-6.4-15.3,2.69-.26c2.29-.22,4.11-2.04,4.33-4.33l.42-4.41c.06-.6.29-1.17.68-1.64l2.82-3.42c1.46-1.78,1.46-4.35,0-6.13Zm-26.29,38.6l-2.17-3.95c-.41-.75-1.28-1.11-2.1-.88l-4.33,1.22,6.12-14.63c.55.08,1.07.3,1.5.66l3.42,2.82c.89.73,1.98,1.1,3.06,1.1.07,0,.14,0,.21,0l-5.72,13.66Zm24.92-33.61l-2.82,3.42c-.61.74-.99,1.64-1.08,2.6l-.42,4.41c-.14,1.44-1.29,2.59-2.73,2.73l-3.87.37s-.03,0-.05,0l-.49.05c-.96.09-1.86.47-2.6,1.08l-3.42,2.82c-1.12.92-2.75.92-3.87,0l-3.42-2.82c-.74-.61-1.64-.99-2.6-1.08l-.49-.05s-.03,0-.04,0l-3.88-.37c-1.44-.14-2.59-1.29-2.73-2.73l-.42-4.41c-.09-.96-.47-1.86-1.08-2.6l-2.82-3.42c-.92-1.12-.92-2.75,0-3.87l2.82-3.42c.61-.74.99-1.64,1.08-2.6l.42-4.41c.14-1.44,1.29-2.59,2.73-2.73l4.41-.42c.96-.09,1.86-.47,2.6-1.08l3.42-2.82c.56-.46,1.25-.69,1.93-.69s1.37.23,1.93.69l3.42,2.82c.74.61,1.64.99,2.6,1.08l4.41.42c1.44.14,2.59,1.29,2.73,2.73l.42,4.41c.09.96.47,1.86,1.08,2.6l2.82,3.42c.92,1.12.92,2.75,0,3.87Z"/>
  <path class="cls-1" d="m21.89,7.99c-.59,0-1.19.04-1.78.11-.49.06-.83.51-.77,1,.06.49.51.83,1,.77.51-.07,1.03-.1,1.55-.1,6.68,0,12.12,5.44,12.12,12.12s-5.44,12.12-12.12,12.12-12.12-5.44-12.12-12.12c0-4.77,2.81-9.11,7.16-11.06.45-.2.65-.73.45-1.18-.2-.45-.73-.65-1.18-.45-4.99,2.24-8.21,7.22-8.21,12.69,0,7.66,6.24,13.9,13.9,13.9s13.9-6.23,13.9-13.9-6.24-13.9-13.9-13.9Z"/>
  <path class="cls-1" d="m13.05,20.86c-1.06,1.06-1.06,2.79,0,3.85l3.89,3.89c.51.51,1.2.8,1.92.8s1.41-.28,1.92-.8l8.48-8.48c1.06-1.06,1.06-2.79,0-3.85-1.06-1.06-2.79-1.06-3.85,0l-6.56,6.56-1.96-1.96c-1.06-1.06-2.79-1.06-3.85,0Zm5.81,4.11c.24,0,.46-.09.63-.26l7.19-7.19c.37-.37.96-.37,1.33,0,.37.37.37.96,0,1.33l-8.48,8.48c-.18.18-.41.28-.67.28s-.49-.1-.67-.28l-3.89-3.89c-.37-.37-.37-.96,0-1.33.18-.18.42-.28.67-.28s.48.09.67.28l2.59,2.59c.17.17.39.26.63.26Z"/>
</svg>