<svg id="Camada_1" data-name="Camada 1" xmlns="http://www.w3.org/2000/svg" viewBox="0 0 2069.72 1040.97"><defs><style>.cls-1{opacity:0.05;}.cls-2,.cls-3{fill:none;stroke:#fff;stroke-linecap:round;stroke-linejoin:round;stroke-width:3px;}.cls-3{stroke-dasharray:0 32.81;}</style></defs><title>bolinhas fundo</title><g class="cls-1"><line class="cls-2" x1="1.5" y1="1.5" x2="1.5" y2="1.5"/><line class="cls-3" x1="34.31" y1="1.5" x2="2051.81" y2="1.5"/><line class="cls-2" x1="2068.22" y1="1.5" x2="2068.22" y2="1.5"/><line class="cls-2" x1="1.5" y1="36.12" x2="1.5" y2="36.12"/><line class="cls-3" x1="34.31" y1="36.12" x2="2051.81" y2="36.12"/><line class="cls-2" x1="2068.22" y1="36.12" x2="2068.22" y2="36.12"/><line class="cls-2" x1="1.5" y1="70.74" x2="1.5" y2="70.74"/><line class="cls-3" x1="34.31" y1="70.74" x2="2051.81" y2="70.74"/><line class="cls-2" x1="2068.22" y1="70.74" x2="2068.22" y2="70.74"/><line class="cls-2" x1="1.5" y1="105.36" x2="1.5" y2="105.36"/><line class="cls-3" x1="34.31" y1="105.36" x2="2051.81" y2="105.36"/><line class="cls-2" x1="2068.22" y1="105.36" x2="2068.22" y2="105.36"/><line class="cls-2" x1="1.5" y1="139.99" x2="1.5" y2="139.99"/><line class="cls-3" x1="34.31" y1="139.99" x2="2051.81" y2="139.99"/><line class="cls-2" x1="2068.22" y1="139.99" x2="2068.22" y2="139.99"/><line class="cls-2" x1="1.5" y1="174.61" x2="1.5" y2="174.61"/><line class="cls-3" x1="34.31" y1="174.61" x2="2051.81" y2="174.61"/><line class="cls-2" x1="2068.22" y1="174.61" x2="2068.22" y2="174.61"/><line class="cls-2" x1="1.5" y1="209.23" x2="1.5" y2="209.23"/><line class="cls-3" x1="34.31" y1="209.23" x2="2051.81" y2="209.23"/><line class="cls-2" x1="2068.22" y1="209.23" x2="2068.22" y2="209.23"/><line class="cls-2" x1="1.5" y1="243.85" x2="1.5" y2="243.85"/><line class="cls-3" x1="34.31" y1="243.85" x2="2051.81" y2="243.85"/><line class="cls-2" x1="2068.22" y1="243.85" x2="2068.22" y2="243.85"/><line class="cls-2" x1="1.5" y1="278.47" x2="1.5" y2="278.47"/><line class="cls-3" x1="34.31" y1="278.47" x2="2051.81" y2="278.47"/><line class="cls-2" x1="2068.22" y1="278.47" x2="2068.22" y2="278.47"/><line class="cls-2" x1="1.5" y1="313.09" x2="1.5" y2="313.09"/><line class="cls-3" x1="34.31" y1="313.09" x2="2051.81" y2="313.09"/><line class="cls-2" x1="2068.22" y1="313.09" x2="2068.22" y2="313.09"/><line class="cls-2" x1="1.5" y1="347.71" x2="1.5" y2="347.71"/><line class="cls-3" x1="34.31" y1="347.71" x2="2051.81" y2="347.71"/><line class="cls-2" x1="2068.22" y1="347.71" x2="2068.22" y2="347.71"/><line class="cls-2" x1="1.5" y1="382.33" x2="1.5" y2="382.33"/><line class="cls-3" x1="34.31" y1="382.33" x2="2051.81" y2="382.33"/><line class="cls-2" x1="2068.22" y1="382.33" x2="2068.22" y2="382.33"/><line class="cls-2" x1="1.5" y1="416.96" x2="1.5" y2="416.96"/><line class="cls-3" x1="34.31" y1="416.96" x2="2051.81" y2="416.96"/><line class="cls-2" x1="2068.22" y1="416.96" x2="2068.22" y2="416.96"/><line class="cls-2" x1="1.5" y1="451.58" x2="1.5" y2="451.58"/><line class="cls-3" x1="34.31" y1="451.58" x2="2051.81" y2="451.58"/><line class="cls-2" x1="2068.22" y1="451.58" x2="2068.22" y2="451.58"/><line class="cls-2" x1="1.5" y1="486.2" x2="1.5" y2="486.2"/><line class="cls-3" x1="34.31" y1="486.2" x2="2051.81" y2="486.2"/><line class="cls-2" x1="2068.22" y1="486.2" x2="2068.22" y2="486.2"/><line class="cls-2" x1="1.5" y1="520.82" x2="1.5" y2="520.82"/><line class="cls-3" x1="34.31" y1="520.82" x2="2051.81" y2="520.82"/><line class="cls-2" x1="2068.22" y1="520.82" x2="2068.22" y2="520.82"/><line class="cls-2" x1="1.5" y1="555.44" x2="1.5" y2="555.44"/><line class="cls-3" x1="34.31" y1="555.44" x2="2051.81" y2="555.44"/><line class="cls-2" x1="2068.22" y1="555.44" x2="2068.22" y2="555.44"/><line class="cls-2" x1="1.5" y1="590.06" x2="1.5" y2="590.06"/><line class="cls-3" x1="34.31" y1="590.06" x2="2051.81" y2="590.06"/><line class="cls-2" x1="2068.22" y1="590.06" x2="2068.22" y2="590.06"/><line class="cls-2" x1="1.5" y1="624.68" x2="1.5" y2="624.68"/><line class="cls-3" x1="34.31" y1="624.68" x2="2051.81" y2="624.68"/><line class="cls-2" x1="2068.22" y1="624.68" x2="2068.22" y2="624.68"/><line class="cls-2" x1="1.5" y1="659.3" x2="1.5" y2="659.3"/><line class="cls-3" x1="34.31" y1="659.3" x2="2051.81" y2="659.3"/><line class="cls-2" x1="2068.22" y1="659.3" x2="2068.22" y2="659.3"/><line class="cls-2" x1="1.5" y1="693.93" x2="1.5" y2="693.93"/><line class="cls-3" x1="34.31" y1="693.93" x2="2051.81" y2="693.93"/><line class="cls-2" x1="2068.22" y1="693.93" x2="2068.22" y2="693.93"/><line class="cls-2" x1="1.5" y1="728.55" x2="1.5" y2="728.55"/><line class="cls-3" x1="34.31" y1="728.55" x2="2051.81" y2="728.55"/><line class="cls-2" x1="2068.22" y1="728.55" x2="2068.22" y2="728.55"/></g><g class="cls-1"><line class="cls-2" x1="1.5" y1="762.5" x2="1.5" y2="762.5"/><line class="cls-3" x1="34.31" y1="762.5" x2="2051.81" y2="762.5"/><line class="cls-2" x1="2068.22" y1="762.5" x2="2068.22" y2="762.5"/><line class="cls-2" x1="1.5" y1="797.12" x2="1.5" y2="797.12"/><line class="cls-3" x1="34.31" y1="797.12" x2="2051.81" y2="797.12"/><line class="cls-2" x1="2068.22" y1="797.12" x2="2068.22" y2="797.12"/><line class="cls-2" x1="1.5" y1="831.74" x2="1.5" y2="831.74"/><line class="cls-3" x1="34.31" y1="831.74" x2="2051.81" y2="831.74"/><line class="cls-2" x1="2068.22" y1="831.74" x2="2068.22" y2="831.74"/><line class="cls-2" x1="1.5" y1="866.36" x2="1.5" y2="866.36"/><line class="cls-3" x1="34.31" y1="866.36" x2="2051.81" y2="866.36"/><line class="cls-2" x1="2068.22" y1="866.36" x2="2068.22" y2="866.36"/><line class="cls-2" x1="1.5" y1="900.99" x2="1.5" y2="900.99"/><line class="cls-3" x1="34.31" y1="900.99" x2="2051.81" y2="900.99"/><line class="cls-2" x1="2068.22" y1="900.99" x2="2068.22" y2="900.99"/><line class="cls-2" x1="1.5" y1="935.61" x2="1.5" y2="935.61"/><line class="cls-3" x1="34.31" y1="935.61" x2="2051.81" y2="935.61"/><line class="cls-2" x1="2068.22" y1="935.61" x2="2068.22" y2="935.61"/><line class="cls-2" x1="1.5" y1="970.23" x2="1.5" y2="970.23"/><line class="cls-3" x1="34.31" y1="970.23" x2="2051.81" y2="970.23"/><line class="cls-2" x1="2068.22" y1="970.23" x2="2068.22" y2="970.23"/><line class="cls-2" x1="1.5" y1="1004.85" x2="1.5" y2="1004.85"/><line class="cls-3" x1="34.31" y1="1004.85" x2="2051.81" y2="1004.85"/><line class="cls-2" x1="2068.22" y1="1004.85" x2="2068.22" y2="1004.85"/><line class="cls-2" x1="1.5" y1="1039.47" x2="1.5" y2="1039.47"/><line class="cls-3" x1="34.31" y1="1039.47" x2="2051.81" y2="1039.47"/><line class="cls-2" x1="2068.22" y1="1039.47" x2="2068.22" y2="1039.47"/></g></svg>