<?xml version="1.0" encoding="UTF-8"?>
<svg id="Camada_1" data-name="Camada 1" xmlns="http://www.w3.org/2000/svg" viewBox="0 0 44.11 44.11">
  <defs>
    <style>
      .cls-1 {
        fill: #1e1e1e;
      }

      .cls-2 {
        fill: #ebad04;
      }
    </style>
  </defs>
  <path class="cls-1" d="m43.25,42.39h-.34v-24.98c0-.48-.39-.86-.86-.86h-6.89c-.48,0-.86.39-.86.86v24.98h-2.41v-20.33c0-.48-.39-.86-.86-.86h-6.89c-.48,0-.86.39-.86.86v20.33h-2.41v-15.34c0-.48-.39-.86-.86-.86h-6.89c-.48,0-.86.39-.86.86v15.34h-2.41v-8.79c0-.48-.39-.86-.86-.86H2.07c-.48,0-.86.39-.86.86v8.79h-.34c-.48,0-.86.39-.86.86s.39.86.86.86h42.39c.48,0,.86-.39.86-.86s-.39-.86-.86-.86Zm-40.32,0v-7.93h5.17v7.93H2.93Zm11.03,0v-14.48h5.17v14.48h-5.17Zm11.03,0v-19.47h5.17v19.47h-5.17Zm11.03,0v-24.12h5.17v24.12h-5.17Z"/>
  <path class="cls-1" d="m35.37,12.47c.92.6,1.56.79,2.37.85v.64c0,.48.39.86.86.86s.86-.39.86-.86v-.74c1.52-.39,2.49-1.69,2.71-2.97.28-1.67-.59-3.13-2.23-3.71-.16-.06-.32-.11-.48-.17v-3.08c.39.14.64.32.65.32.38.28.92.21,1.2-.17.29-.38.21-.92-.17-1.21-.04-.03-.7-.52-1.69-.74v-.63c0-.48-.39-.86-.86-.86s-.86.39-.86.86v.63c-.1.02-.19.04-.29.07-1.08.33-1.89,1.25-2.11,2.41-.2,1.07.14,2.09.9,2.69.38.3.86.58,1.5.86v4.06c-.51-.05-.85-.19-1.42-.56-.4-.26-.93-.15-1.19.25-.26.4-.15.93.25,1.19h0Zm5.1-2.51c-.09.54-.43,1.11-1.01,1.42v-3.18c1.13.45,1.06,1.46,1.01,1.76Zm-3.17-4.65c-.24-.19-.35-.59-.27-1.01.07-.36.29-.78.71-1v2.3c-.16-.09-.31-.19-.44-.29h0Z"/>
  <path class="cls-2" d="m5.63,26.1c.16.16.38.25.61.25s.45-.09.61-.25l9.94-9.94,2.85,2.85c.16.16.38.25.61.25s.45-.09.61-.25l9.44-9.44.7.7c.25.25.62.32.94.19.32-.13.53-.45.53-.8v-5.36c0-.48-.39-.86-.86-.86h-5.36c-.35,0-.66.21-.8.53-.13.32-.06.69.19.94l.71.71-6.11,6.11-2.85-2.85c-.34-.34-.88-.34-1.22,0L2.91,22.16c-.34.34-.34.88,0,1.22l2.72,2.72Zm11.16-15.39l2.85,2.85c.16.16.38.25.61.25s.45-.09.61-.25l7.33-7.33c.16-.16.25-.38.25-.61,0-.16-.05-.32-.13-.46h2.44v2.45c-.33-.2-.77-.16-1.06.13l-9.44,9.44-2.85-2.85c-.34-.34-.88-.34-1.22,0l-9.94,9.94-1.5-1.5,12.05-12.05Z"/>
</svg>