<?xml version="1.0" encoding="UTF-8"?>
<svg id="Camada_1" data-name="Camada 1" xmlns="http://www.w3.org/2000/svg" viewBox="0 0 39.41 39.57">
  <defs>
    <style>
      .cls-1 {
        fill: #1e1e1e;
      }

      .cls-2 {
        fill: #ebad04;
      }
    </style>
  </defs>
  <path class="cls-1" d="m10.24,39.57c-5.65,0-10.24-4.59-10.24-10.24,0-5.22,3.91-9.6,9.1-10.17.21-.02.37-.2.37-.41V3.14c0-1.73,1.41-3.14,3.14-3.14h18.15c.21,0,.4.08.54.23l7.89,7.89c.15.15.23.34.23.54v27.78c0,1.73-1.41,3.14-3.14,3.14H10.24Zm10.59-9.47c-.21,0-.39.16-.41.37-.3,2.69-1.63,5.11-3.75,6.82-.14.11-.19.3-.13.46.06.17.21.28.39.28h19.35c.88,0,1.6-.72,1.6-1.6V9.84c0-.23-.19-.41-.42-.41h-6.71c-.42,0-.77-.34-.77-.77V1.95c0-.23-.19-.41-.42-.41H12.61c-.88,0-1.6.72-1.6,1.6v15.61c0,.21.16.39.37.41,1.94.22,3.77.98,5.29,2.21.07.06.17.09.26.09h16.2c.42,0,.77.34.77.77s-.34.77-.77.77h-14.03c-.15,0-.29.08-.37.22-.07.14-.06.3.02.43.91,1.36,1.49,2.93,1.67,4.55.02.21.2.37.41.37h12.3c.42,0,.77.34.77.77s-.34.77-.77.77h-12.3Zm-10.59-9.47c-4.8,0-8.7,3.9-8.7,8.7s3.9,8.7,8.7,8.7,8.7-3.9,8.7-8.7-3.9-8.7-8.7-8.7ZM31.94,3.21c-.05,0-.11.01-.16.03-.15.06-.26.22-.26.38v3.85c0,.23.19.41.42.41h3.85c.17,0,.32-.1.38-.26.06-.15.03-.33-.09-.45l-3.85-3.85c-.08-.08-.19-.12-.29-.12Z"/>
  <path class="cls-1" d="m15.76,15.9c-.42,0-.77-.34-.77-.77s.34-.77.77-.77h17.36c.42,0,.77.35.77.77s-.34.77-.77.77H15.76Z"/>
  <path class="cls-2" d="m8.58,33.5c-.21,0-.4-.08-.54-.23l-2.37-2.37c-.3-.3-.3-.79,0-1.09.14-.15.34-.23.54-.23s.4.08.54.23l1.53,1.53c.08.08.19.12.29.12s.21-.04.29-.12l4.69-4.69c.14-.15.34-.23.54-.23s.4.08.54.23c.15.15.23.34.23.54s-.08.4-.22.54l-5.52,5.52c-.14.15-.34.23-.54.23Z"/>
</svg>