<svg width="32" height="32" viewBox="0 0 32 32" fill="none" xmlns="http://www.w3.org/2000/svg">
<path d="M15.2136 19.6478C15.0758 19.648 14.9368 19.6076 14.8148 19.5235C14.4968 19.304 14.4155 18.8691 14.6326 18.5495L24.3121 4.30916C24.473 4.07239 24.7614 3.95685 25.041 4.01691C25.3208 4.07697 25.5363 4.30055 25.586 4.58236C25.8209 5.91486 25.7914 7.36547 25.5005 8.77725C25.2025 10.2231 24.6419 11.5633 23.8788 12.653L19.7088 18.6552C19.6023 18.8086 19.4387 18.9134 19.2547 18.9463C19.0709 18.9787 18.8812 18.9372 18.7281 18.8301C17.7754 18.163 16.4573 18.3954 15.7903 19.3481C15.6535 19.5433 15.4352 19.6478 15.2136 19.6478ZM17.5232 17.0434C17.9945 17.0434 18.4688 17.1377 18.916 17.3317L22.7254 11.8484C23.6924 10.4674 24.2613 8.61557 24.3295 6.78519L17.354 17.0475C17.4102 17.0447 17.4666 17.0434 17.5232 17.0434Z" fill="#E6B817"/>
<path d="M11.9762 27.4218C11.2614 27.4218 10.565 27.2035 9.96713 26.7849C8.37918 25.6731 7.99172 23.4765 9.10376 21.8883C9.64229 21.1191 10.4484 20.6056 11.3733 20.4425C12.2982 20.2795 13.2311 20.4862 14.0004 21.025C14.7696 21.5635 15.2831 22.3695 15.4462 23.2944C15.6092 24.2192 15.4025 25.1523 14.8637 25.9216C14.325 26.6908 13.5191 27.2043 12.5942 27.3674C12.3881 27.4038 12.1813 27.4218 11.9762 27.4218ZM10.2557 22.6949C9.58846 23.6479 9.82083 24.9659 10.7737 25.633C11.2354 25.9563 11.7953 26.0803 12.3502 25.9825C12.905 25.8846 13.3886 25.5766 13.7118 25.1149C14.035 24.6533 14.1591 24.0935 14.0613 23.5385C13.9634 22.9837 13.6554 22.5001 13.1938 22.1769C12.7321 21.8535 12.1724 21.7296 11.6173 21.8274C11.0625 21.9253 10.5789 22.2333 10.2557 22.6949Z" fill="#E6B817"/>
<path d="M13.599 22.3025C13.4747 22.3025 13.3487 22.2694 13.2346 22.2001C12.9028 21.9985 12.7972 21.566 12.9988 21.2342L14.612 18.5786C14.8138 18.2468 15.2461 18.1411 15.5781 18.3429C15.9099 18.5445 16.0155 18.9768 15.8139 19.3088L14.2007 21.9643C14.0683 22.182 13.8367 22.3025 13.599 22.3025Z" fill="#E6B817"/>
<path d="M17.1944 19.6467C16.9727 19.6467 16.7546 19.5421 16.6178 19.3469C15.9507 18.394 14.6327 18.1618 13.68 18.8287C13.5271 18.9358 13.3379 18.9776 13.1541 18.9452C12.9702 18.9126 12.8069 18.8084 12.7001 18.6553L8.52867 12.6795C7.00775 10.5074 6.33756 7.32824 6.82207 4.5812C6.8717 4.29939 7.08722 4.07582 7.36701 4.01576C7.64681 3.95551 7.93502 4.07124 8.09598 4.308L17.7752 18.5484C17.9926 18.8679 17.9111 19.303 17.593 19.5223C17.4713 19.6064 17.3321 19.6467 17.1944 19.6467ZM8.07657 6.7811C8.14157 8.62466 8.71123 10.4884 9.68117 11.8736L13.4906 17.3311C13.9918 17.1133 14.5272 17.021 15.054 17.0463L8.07657 6.7811Z" fill="#E6B817"/>
<path d="M20.4283 27.421C20.223 27.421 20.0165 27.403 19.8101 27.3666C18.8854 27.2036 18.0794 26.69 17.5406 25.9207C17.0021 25.1515 16.7952 24.2185 16.9583 23.2936C17.1213 22.3687 17.6349 21.5627 18.4042 21.0241C19.9921 19.9121 22.1888 20.2994 23.3008 21.8875C24.4128 23.4756 24.0254 25.6723 22.4374 26.7843C21.8396 27.2027 21.143 27.421 20.4283 27.421ZM20.4177 21.7954C20 21.7954 19.5783 21.9188 19.2108 22.1761C18.2579 22.8434 18.0255 24.1614 18.6926 25.1141C19.016 25.5759 19.4994 25.8839 20.0544 25.9817C20.6092 26.0795 21.1692 25.9555 21.6308 25.6323C22.5835 24.9651 22.8161 23.647 22.1488 22.6943C21.739 22.1089 21.0833 21.7954 20.4177 21.7954ZM18.8074 21.6002H18.808H18.8074Z" fill="#E6B817"/>
<path d="M18.811 22.3025C18.5733 22.3025 18.3417 22.1822 18.2093 21.9643L16.596 19.3088C16.3944 18.977 16.5001 18.5445 16.8319 18.3429C17.1639 18.1411 17.5964 18.2467 17.7978 18.5787L19.411 21.2342C19.6128 21.566 19.5072 21.9985 19.1752 22.2001C19.0611 22.2694 18.9353 22.3025 18.811 22.3025Z" fill="#E6B817"/>
<path d="M22.8409 28C22.6256 28 22.413 27.9013 22.2751 27.7149L21.4685 26.6242C21.2374 26.312 21.3033 25.8716 21.6157 25.6409C21.9279 25.4098 22.3681 25.4758 22.599 25.788L23.4056 26.8786C23.6367 27.1908 23.5708 27.6312 23.2586 27.8621C23.1328 27.9551 22.9861 28 22.8409 28Z" fill="#E6B817"/>
<path d="M9.17183 27.9999C9.02644 27.9999 8.87995 27.955 8.75415 27.862C8.44194 27.6311 8.37602 27.1909 8.60693 26.8787L9.41354 25.7881C9.64444 25.4757 10.0848 25.41 10.397 25.6407C10.7092 25.8718 10.7752 26.312 10.5443 26.6242L9.73765 27.7148C9.59976 27.9014 9.38717 27.9999 9.17183 27.9999Z" fill="#E6B817"/>
</svg>
