<svg width="32" height="32" viewBox="0 0 32 32" fill="none" xmlns="http://www.w3.org/2000/svg">
<path fill-rule="evenodd" clip-rule="evenodd" d="M14.3031 5.2227C14.8411 3.59244 17.1589 3.59243 17.6969 5.2227L19.7027 11.3003H26.2059C27.8966 11.3003 28.6927 13.4875 27.2484 14.5206L22.0036 18.2722L24.0045 24.3352C24.5656 26.0353 22.6117 27.296 21.265 26.3327L16 22.5666L10.735 26.3327C9.38834 27.296 7.43444 26.0353 7.9955 24.3352L9.99642 18.2722L4.75156 14.5206C3.30729 13.4875 4.10337 11.3003 5.79414 11.3003H12.2973L14.3031 5.2227ZM16 6.84206L14.2315 12.2008C13.9876 12.9399 13.2961 13.4235 12.5346 13.4235H6.86459L11.4354 16.693C12.0627 17.1418 12.3348 17.9478 12.0897 18.6906L10.3338 24.0112L14.9574 20.7039C15.5803 20.2583 16.4197 20.2583 17.0426 20.7039L21.6662 24.0112L19.9103 18.6906C19.6652 17.9478 19.9373 17.1418 20.5646 16.693L25.1354 13.4235H19.4654C18.7039 13.4235 18.0124 12.9399 17.7685 12.2008L16 6.84206Z" fill="#EBE9E1"/>
</svg>
