<?xml version="1.0" encoding="UTF-8"?>
<svg id="Camada_1" data-name="Camada 1" xmlns="http://www.w3.org/2000/svg" viewBox="0 0 43.22 43.22">
  <defs>
    <style>
      .cls-1 {
        fill: #1e1e1e;
      }

      .cls-2 {
        fill: #ebad04;
      }
    </style>
  </defs>
  <path class="cls-1" d="m24.49,3.22l-7.05,7.05c-1.29,1.29-2.19,2.82-2.7,4.46-1.67.53-3.21,1.46-4.46,2.71l-7.05,7.05c-4.29,4.29-4.29,11.23,0,15.52,4.29,4.29,11.23,4.29,15.52,0l7.05-7.05c1.29-1.29,2.19-2.82,2.7-4.46,1.68-.53,3.21-1.46,4.46-2.71l7.05-7.05c4.29-4.29,4.29-11.23,0-15.52-4.29-4.29-11.23-4.29-15.52,0Zm-9.44,18.99c.53,1.3,1.33,2.52,2.39,3.58,1.03,1.03,2.25,1.84,3.58,2.39l-7.05,7.05c-1.65,1.65-4.32,1.65-5.97,0-1.65-1.65-1.65-4.32,0-5.97l7.05-7.05s0,0,0,0Zm9.55,9.55l-7.05,7.05c-3.63,3.63-9.5,3.63-13.13,0-3.63-3.63-3.63-9.5,0-13.13l7.05-7.05c.82-.82,1.79-1.48,2.84-1.94-.16,1.29-.09,2.56.19,3.77-.23.17-.44.35-.64.56l-7.05,7.05c-2.3,2.3-2.3,6.05,0,8.36s6.05,2.3,8.36,0l7.05-7.05c2.31-2.31,2.31-6.05,0-8.36-1.23-1.23-1.53-3.02-.94-4.53,1.24.46,2.39,1.19,3.33,2.14,3.62,3.62,3.62,9.51,0,13.13Zm14.22-14.22l-7.05,7.05c-.82.82-1.79,1.48-2.84,1.94.16-1.29.09-2.56-.19-3.77.23-.17.44-.35.64-.56l7.05-7.05c2.3-2.3,2.3-6.05,0-8.36-2.07-2.07-5.3-2.28-7.61-.63-.38.27-.47.8-.2,1.18s.8.47,1.18.2c1.68-1.2,3.97-1.02,5.44.45,1.65,1.65,1.65,4.32,0,5.97l-7.05,7.05h0c-.53-1.3-1.33-2.52-2.39-3.58-1.03-1.03-2.25-1.84-3.58-2.39l2.88-2.88c.33-.33.33-.86,0-1.19-.33-.33-.86-.33-1.19,0l-2.88,2.88c-2.31,2.31-2.31,6.05,0,8.36,1.23,1.23,1.53,3.02.94,4.53-1.24-.46-2.39-1.19-3.33-2.14-3.62-3.62-3.62-9.51,0-13.13l7.05-7.05c3.63-3.63,9.5-3.63,13.13,0,3.63,3.63,3.63,9.5,0,13.13Z"/>
  <path class="cls-1" d="m27.72,9.19c0,.47-.38.84-.84.84s-.84-.38-.84-.84.38-.84.84-.84.84.38.84.84Z"/>
  <path class="cls-2" d="m11.46,11.46c.33-.33.33-.86,0-1.19l-3.58-3.58c-.33-.33-.86-.33-1.19,0-.33.33-.33.86,0,1.19l3.58,3.58c.33.33.86.33,1.19,0Z"/>
  <path class="cls-2" d="m3.21,14.18c-.47,0-.84.38-.84.84s.38.84.84.84h5.06c.47,0,.84-.38.84-.84s-.38-.84-.84-.84H3.21Z"/>
  <path class="cls-2" d="m14.18,2.96v5.06c0,.47.38.84.84.84s.84-.38.84-.84V2.96c0-.47-.38-.84-.84-.84s-.84.38-.84.84Z"/>
  <path class="cls-2" d="m31.76,31.76c-.33.33-.33.86,0,1.19l3.58,3.58c.16.16.38.25.6.25.74,0,1.13-.91.6-1.44l-3.58-3.58c-.33-.33-.86-.33-1.19,0Z"/>
  <path class="cls-2" d="m28.96,40.27v-5.06c0-.47-.38-.84-.84-.84s-.84.38-.84.84v5.06c0,.47.38.84.84.84s.84-.38.84-.84Z"/>
  <path class="cls-2" d="m40.27,28.96c.47,0,.84-.38.84-.84s-.38-.84-.84-.84h-5.06c-.47,0-.84.38-.84.84s.38.84.84.84h5.06Z"/>
</svg>