<?xml version="1.0" encoding="UTF-8"?>
<svg id="Camada_1" data-name="Camada 1" xmlns="http://www.w3.org/2000/svg" viewBox="0 0 32.1 32.11">
  <defs>
    <style>
      .cls-1 {
        fill: #fff;
      }
    </style>
  </defs>
  <path class="cls-1" d="m32.1,24.2c-.15.68-.22,1.39-.46,2.04-1.24,3.39-3.66,5.34-7.25,5.81-1.48.19-2.89-.09-4.26-.63-.33-.13-.57-.14-.86.12-.47.43-1.08.57-1.71.56-3.4,0-6.79,0-10.19,0-1.54,0-3.07,0-4.61,0-1.65,0-2.77-1.13-2.77-2.78,0-3.42,0-6.83,0-10.25,0-.09,0-.19,0-.28.05-.32.32-.55.63-.54.3,0,.56.23.6.53.02.11,0,.23,0,.34,0,2.44,0,4.89,0,7.33,0,.11,0,.23,0,.36h11.95s.04-.09.06-.14c.44-1.25,1.57-1.87,2.85-1.57.42.1.84.2,1.29.26-.08-.08-.15-.16-.23-.24-2.64-2.65-5.29-5.29-7.93-7.94-.84-.84-.96-2.02-.32-2.94.81-1.14,2.4-1.29,3.42-.3,1.13,1.11,2.25,2.24,3.37,3.37.07.07.14.16.24.26.42-.98,1.13-1.49,2.18-1.54.03-.72.29-1.32.85-1.78.05-.04.08-.15.08-.22,0-2.88,0-5.77,0-8.65,0-.03-.01-.06-.02-.1H1.25v.36c0,2.44,0,4.89,0,7.33,0,.11,0,.23,0,.34-.05.32-.33.55-.64.53-.3,0-.56-.24-.6-.54-.02-.11,0-.23,0-.34,0-3.35,0-6.71,0-10.06C0,1.34.7.43,2.21.03c.02,0,.03-.02.05-.03,5.27,0,10.53,0,15.8,0,.02.01.03.03.05.03,1.51.4,2.21,1.3,2.21,2.87,0,3.49,0,6.98,0,10.47v.35c.39.09.74.16,1.1.24,0-.01.03-.04.04-.07.73-1.68,2.53-2.03,3.82-.74,1.41,1.41,2.82,2.82,4.23,4.23,1.06,1.06,1.84,2.3,2.24,3.75.16.57.24,1.16.35,1.74v1.32Zm-1.26-.93c-.03-1.62-.61-3.3-1.92-4.66-1.51-1.59-3.09-3.12-4.64-4.67-.41-.41-1.02-.4-1.41-.01-.4.4-.39,1,.03,1.43.36.37.72.72,1.08,1.09.41.41.83.82,1.24,1.24.19.19.31.44.15.68-.11.17-.32.37-.51.39-.19.02-.44-.11-.59-.25-1.05-1.02-2.07-2.07-3.12-3.09-.16-.16-.38-.3-.6-.36-.44-.11-.85.1-1.06.48-.21.39-.14.86.21,1.21,1.02,1.03,2.05,2.05,3.08,3.08.09.09.18.18.24.28.16.26.1.57-.12.77-.21.19-.52.22-.75.06-.09-.06-.18-.15-.26-.23-.98-.98-1.97-1.96-2.95-2.95-.06-.06-.12-.12-.18-.18-.42-.38-1-.38-1.38,0-.39.39-.4,1,0,1.41.97.98,1.95,1.95,2.92,2.93.08.08.17.16.23.25.19.26.16.58-.06.8-.22.22-.58.25-.83.05-.11-.08-.2-.18-.29-.28-2.58-2.58-5.16-5.16-7.73-7.73-.09-.09-.17-.18-.27-.26-.34-.25-.71-.29-1.09-.09-.36.19-.59.6-.49,1,.06.25.21.5.4.68,3.22,3.24,6.45,6.46,9.68,9.69.29.29.35.56.2.84-.15.28-.42.37-.81.28-1.18-.28-2.35-.57-3.53-.85-.43-.1-.79.03-1.07.36-.27.32-.32.69-.16,1.09.14.34.42.53.76.65,1.77.61,3.55,1.23,5.32,1.85.84.3,1.69.54,2.59.58,4.17.2,7.67-3.13,7.67-7.56ZM19.06,4c0-.41,0-.8,0-1.2,0-1-.55-1.55-1.55-1.55-3.66,0-7.31,0-10.97,0-1.3,0-2.59,0-3.89,0-.63,0-1.21.37-1.32.96-.11.58-.08,1.19-.11,1.79h17.83ZM1.26,28.09c0,.49,0,.94,0,1.39.01.77.6,1.37,1.38,1.37,5.01,0,10.02,0,15.04,0,.14,0,.28-.04.42-.06-.11-.1-.21-.15-.32-.18-.97-.34-1.95-.68-2.92-1.02-.64-.22-1.15-.6-1.43-1.22-.1-.21-.21-.28-.44-.28-3.79,0-7.58,0-11.37,0h-.35Z"/>
  <path class="cls-1" d="m15.45,9.77c-.15.2-.25.44-.41.52-.17.08-.41.04-.61,0-.09-.01-.16-.12-.24-.19-2.12-1.94-5.18-1.94-7.32,0-.15.14-.39.24-.6.26-.25.02-.44-.17-.52-.42-.08-.27,0-.49.2-.68.83-.8,1.79-1.37,2.91-1.64,2.34-.57,4.42-.04,6.2,1.58.15.14.25.34.4.56Z"/>
  <path class="cls-1" d="m10.42,10.33c1.05,0,1.88.33,2.58.96.34.31.38.68.11.96-.26.28-.6.27-.94-.02-1.05-.88-2.25-.88-3.29,0-.34.29-.68.3-.94.02-.26-.28-.22-.66.11-.96.7-.63,1.53-.96,2.37-.96Z"/>
  <path class="cls-1" d="m1.25,16.05c0,.35-.3.63-.64.62-.33-.01-.61-.3-.6-.63,0-.33.28-.61.61-.62.35,0,.64.28.64.63Z"/>
  <path class="cls-1" d="m9.52,29.48c0-.35.25-.63.6-.64.35-.01.65.28.65.63,0,.33-.29.62-.62.62-.34,0-.62-.27-.62-.61Z"/>
</svg>