<?xml version="1.0" encoding="UTF-8"?>
<svg id="Camada_1" data-name="Camada 1" xmlns="http://www.w3.org/2000/svg" viewBox="0 0 40.19 40.19">
  <defs>
    <style>
      .cls-1 {
        fill: #1e1e1e;
      }

      .cls-2 {
        fill: #ebad04;
      }
    </style>
  </defs>
  <path class="cls-1" d="m37.51,5.36v1.34c.74,0,1.34.6,1.34,1.34v20.09h-1.34v1.34h1.34v1.34c0,.74-.6,1.34-1.34,1.34v1.34c1.48,0,2.68-1.2,2.68-2.68V8.04c0-1.48-1.2-2.68-2.68-2.68Z"/>
  <path class="cls-1" d="m2.68,33.49h13.16l-1.61,5.36h-1.51v1.34h14.73v-1.34h-11.83l1.61-5.36h.84v-1.34H2.68c-.74,0-1.34-.6-1.34-1.34v-1.34h21.43v-1.34H1.34V8.04c0-.74.6-1.34,1.34-1.34v-1.34c-1.48,0-2.68,1.2-2.68,2.68v22.77c0,1.48,1.2,2.68,2.68,2.68Z"/>
  <path class="cls-1" d="m5.36,2.68c0-.74.6-1.34,1.34-1.34h26.79c.74,0,1.34.6,1.34,1.34v24.11h1.34V2.68c0-1.48-1.2-2.68-2.68-2.68H6.7c-1.48,0-2.68,1.2-2.68,2.68v24.11h1.34V2.68Z"/>
  <path class="cls-1" d="m6.7,2.68h1.34v1.34h-1.34v-1.34Z"/>
  <path class="cls-1" d="m9.38,2.68h1.34v1.34h-1.34v-1.34Z"/>
  <path class="cls-1" d="m12.06,2.68h1.34v1.34h-1.34v-1.34Z"/>
  <path class="cls-1" d="m12.06,25.45h10.72v-1.34h-10.72c-1.11,0-2.01-.9-2.01-2.01s.9-2.01,2.01-2.01h16.07c.81,0,1.54.49,1.86,1.24s.14,1.61-.43,2.19c-.13.12-.27.23-.42.32l.67,1.16c.25-.15.49-.33.7-.54.96-.96,1.24-2.4.72-3.65-.52-1.25-1.74-2.06-3.09-2.06H12.06c-1.85,0-3.35,1.5-3.35,3.35s1.5,3.35,3.35,3.35Z"/>
  <path class="cls-1" d="m19.42,21.43h1.34v1.34h-1.34v-1.34Z"/>
  <path class="cls-1" d="m22.1,21.43h1.34v1.34h-1.34v-1.34Z"/>
  <path class="cls-1" d="m16.74,21.43h1.34v1.34h-1.34v-1.34Z"/>
  <path class="cls-1" d="m14.06,21.43h1.34v1.34h-1.34v-1.34Z"/>
  <path class="cls-1" d="m11.39,21.43h1.34v1.34h-1.34v-1.34Z"/>
  <path class="cls-1" d="m15.9,15.72s.1.09.15.13c.08.08.17.15.25.22.07.06.15.11.22.16.07.05.16.12.24.18s.18.11.27.16c.07.04.15.09.22.13.1.05.21.1.31.15.07.03.14.07.21.1.11.05.22.08.33.12.07.02.14.05.21.07.12.04.24.06.35.09.07.02.14.04.22.05.13.03.26.04.39.06.07,0,.13.02.2.03.2.02.4.03.6.03s.4-.01.6-.03c.07,0,.13-.02.2-.03.13-.02.26-.03.39-.06.07-.01.14-.04.22-.05.12-.03.24-.06.35-.09.07-.02.14-.05.21-.07.11-.04.23-.08.33-.12.07-.03.14-.07.21-.1.1-.05.21-.1.31-.15.08-.04.15-.09.22-.13.09-.05.18-.11.27-.16s.16-.12.24-.18c.08-.06.15-.11.22-.16.09-.07.17-.15.25-.22.05-.04.1-.09.15-.13,0,0,0,0,.01-.01,1.76-1.71,2.31-4.32,1.39-6.59s-3.13-3.76-5.59-3.76-4.66,1.49-5.59,3.76c-.92,2.27-.37,4.88,1.39,6.59,0,0,0,.01.01.01Zm2.85-5c0-.74.6-1.34,1.34-1.34s1.34.6,1.34,1.34-.6,1.34-1.34,1.34-1.34-.6-1.34-1.34Zm1.34,2.68c1.19,0,2.3.63,2.9,1.67l-.04.03c-.19.15-.39.28-.6.4h-.01c-.21.12-.42.21-.64.29-.04.01-.08.03-.12.04-.21.07-.43.13-.65.17-.04,0-.09.01-.13.02-.47.08-.94.08-1.41,0-.04,0-.09-.01-.13-.02-.22-.04-.44-.1-.65-.17-.04-.01-.08-.03-.12-.04-.22-.08-.43-.17-.64-.28h-.01c-.21-.13-.41-.26-.6-.41l-.04-.03c.6-1.04,1.71-1.68,2.9-1.67Zm0-6.7c1.75,0,3.35.97,4.16,2.52.81,1.55.68,3.42-.32,4.85-.47-.68-1.11-1.22-1.85-1.57.97-1.07.91-2.72-.12-3.72-1.04-1-2.69-1-3.72,0-1.04,1-1.09,2.65-.12,3.72-.75.35-1.38.9-1.85,1.57-1.01-1.43-1.13-3.3-.32-4.85.81-1.55,2.41-2.52,4.16-2.52Z"/>
  <path class="cls-2" d="m20.55,31.17l-.11.05c-.58.29-.97.86-1.02,1.51-.05.65.24,1.27.77,1.65l4.19,3c.11.08.25.12.39.12h10.72c.37,0,.67-.3.67-.67v-7.3c.01-1-.69-1.86-1.67-2.05-.58-.1-1.18.07-1.63.45l-.04.03c-.76-.68-1.92-.68-2.68,0-.55-.47-1.32-.63-2.01-.4v-4.13c.01-1-.69-1.87-1.67-2.05-.58-.1-1.18.06-1.63.45-.45.38-.71.94-.71,1.54v8.94l-1.78-1.07c-.54-.33-1.22-.35-1.78-.07Zm3.88,2.89c.21.12.46.13.67,0s.34-.34.34-.58v-10.12c0-.2.09-.39.24-.51.15-.13.35-.18.55-.15.33.08.57.39.55.73v6.03c0,.37.3.67.67.67s.67-.3.67-.67.3-.67.67-.67.67.3.67.67.3.67.67.67.67-.3.67-.67.3-.67.67-.67.67.3.67.67.3.67.67.67.67-.3.67-.67c0-.2.09-.38.24-.51.15-.13.35-.18.55-.15.33.08.57.39.55.73v6.63h-9.83l-4.02-2.87c-.13-.1-.21-.25-.21-.42,0-.19.11-.37.28-.46l.11-.05c.16-.08.34-.07.49.02l2.79,1.68Z"/>
</svg>