<?xml version="1.0" encoding="UTF-8"?>
<svg id="Camada_1" data-name="Camada 1" xmlns="http://www.w3.org/2000/svg" viewBox="0 0 40.78 43.5">
  <defs>
    <style>
      .cls-1 {
        fill: #1e1e1e;
      }

      .cls-2 {
        fill: #ebad04;
      }
    </style>
  </defs>
  <path class="cls-1" d="m20.39,17.67c-7.12,0-12.91,5.79-12.91,12.91s5.79,12.91,12.91,12.91,12.91-5.79,12.91-12.91-5.79-12.91-12.91-12.91Zm.68,24.45v-.66c0-.38-.3-.68-.68-.68s-.68.3-.68.68v.66c-5.83-.34-10.51-5.02-10.85-10.85h.66c.38,0,.68-.3.68-.68s-.3-.68-.68-.68h-.66c.34-5.83,5.02-10.51,10.85-10.85v.66c0,.38.3.68.68.68s.68-.3.68-.68v-.66c5.83.34,10.51,5.02,10.85,10.85h-.66c-.38,0-.68.3-.68.68s.3.68.68.68h.66c-.34,5.83-5.02,10.51-10.85,10.85Z"/>
  <path class="cls-1" d="m38.06,2.72h-3.4v-.68c0-1.12-.91-2.04-2.04-2.04s-2.04.91-2.04,2.04v.68H10.19v-.68c0-1.12-.91-2.04-2.04-2.04s-2.04.91-2.04,2.04v.68h-3.4c-1.5,0-2.72,1.22-2.72,2.72v28.54c0,1.5,1.22,2.72,2.72,2.72h4.08c.38,0,.68-.3.68-.68s-.3-.68-.68-.68H2.72c-.75,0-1.36-.61-1.36-1.36V10.87h38.06v23.11c0,.75-.61,1.36-1.36,1.36h-4.08c-.38,0-.68.3-.68.68s.3.68.68.68h4.08c1.5,0,2.72-1.22,2.72-2.72V5.44c0-1.5-1.22-2.72-2.72-2.72Zm-6.12-.68c0-.37.3-.68.68-.68s.68.3.68.68v3.4c0,.37-.3.68-.68.68s-.68-.3-.68-.68v-3.4Zm-24.47,0c0-.37.3-.68.68-.68s.68.3.68.68v3.4c0,.37-.3.68-.68.68s-.68-.3-.68-.68v-3.4ZM1.36,9.51v-4.08c0-.75.61-1.36,1.36-1.36h3.4v1.36c0,1.12.91,2.04,2.04,2.04s2.04-.91,2.04-2.04v-1.36h20.39v1.36c0,1.12.91,2.04,2.04,2.04s2.04-.91,2.04-2.04v-1.36h3.4c.75,0,1.36.61,1.36,1.36v4.08H1.36Z"/>
  <path class="cls-2" d="m17.67,27.19h-.68c-1.12,0-2.04.91-2.04,2.04,0,.38.3.68.68.68s.68-.3.68-.68.3-.68.68-.68h.68c.66,0,.93.83.4,1.25l-2.87,2.29c-.16.13-.26.32-.26.53v.68c0,.38.3.68.68.68h3.4c.38,0,.68-.3.68-.68s-.3-.68-.68-.68h-2.31l2.2-1.76c1.53-1.22.68-3.67-1.25-3.67h0Z"/>
  <path class="cls-2" d="m25.15,33.98c.38,0,.68-.3.68-.68v-4.08c0-.38-.3-.68-.68-.68s-.68.3-.68.68v1.36h-1.89l.52-2.59c.07-.37-.17-.73-.53-.8-.37-.07-.73.17-.8.53l-.68,3.4c-.08.42.24.81.67.81h2.72v1.36c0,.38.3.68.68.68Z"/>
  <path class="cls-1" d="m27.6,22.7c-.38,0-.68.3-.68.68v1.24l-.28-.28c-1.67-1.67-3.89-2.59-6.25-2.59-4.88,0-8.84,3.95-8.84,8.84s3.95,8.84,8.84,8.84c2.36,0,4.58-.92,6.25-2.59.27-.27.27-.7,0-.96-.27-.27-.7-.27-.96,0-1.41,1.41-3.29,2.19-5.29,2.19-4.13,0-7.48-3.34-7.48-7.48,0-2,.78-3.87,2.19-5.29,2.91-2.91,7.66-2.91,10.57,0l.28.28h-1.24c-.38,0-.68.3-.68.68s.3.68.68.68h2.88c.38,0,.68-.31.68-.68v-2.88c0-.38-.3-.68-.68-.68h0Z"/>
</svg>