<?xml version="1.0" encoding="UTF-8"?>
<svg id="Camada_1" data-name="Camada 1" xmlns="http://www.w3.org/2000/svg" viewBox="0 0 43.5 41.33">
  <defs>
    <style>
      .cls-1 {
        fill: #1e1e1e;
      }

      .cls-2 {
        fill: #ebad04;
      }
    </style>
  </defs>
  <g id="Page-1">
    <g id="_012---Stacked-Boxes" data-name="012---Stacked-Boxes">
      <path id="Shape" class="cls-1" d="m41.33,17.4h-7.09c.36-.4.57-.91.57-1.45V2.18c0-1.2-.97-2.18-2.18-2.18h-13.78c-.55,0-1.09.21-1.49.59l-6.68,4.69c-.77.36-1.26,1.12-1.26,1.97v10.15c-.55,0-1.09.21-1.49.59l-6.68,4.69c-.77.36-1.26,1.12-1.26,1.97v14.5c0,1.2.97,2.18,2.18,2.18h15.23c.54,0,1.05-.2,1.45-.57.4.36.91.56,1.45.57h15.23c.59,0,1.15-.24,1.56-.66l5.77-5.77c.41-.41.65-.96.65-1.54v-13.78c0-1.2-.98-2.17-2.18-2.18Zm-4.83,5.31c-.3-.15-.63-.23-.97-.24h-6.36l3.63-3.63h8.11l-4.41,3.86Zm-19.09-.24h-5.8c-.4,0-.73-.32-.73-.73V7.25c0-.4.32-.73.73-.73h15.23c.4,0,.73.32.73.73v14.5c0,.19-.07.37-.21.51h-.01c-.14.15-.32.22-.5.22h-9.43ZM28.8,6.36l4.55-3.98v13.57c0,.19-.08.37-.22.51l-4.13,4.14V7.25c0-.31-.07-.61-.2-.89Zm-1.01-1.04c-.3-.15-.63-.23-.97-.24h-5.14l4.66-3.63h5.86l-4.41,3.86Zm-9.55-3.57s.07-.05.1-.09c.13-.13.31-.21.5-.21h5.14s-4.66,3.63-4.66,3.63h-5.82l4.74-3.33Zm-9.43,17.4s.07-.05.1-.09c.13-.13.31-.21.5-.21v2.9c0,.25.05.49.13.73h-5.48l4.74-3.33Zm-6.64,20.73c-.4,0-.73-.32-.73-.73v-14.5c0-.4.32-.73.73-.73h15.23c.4,0,.73.32.73.73v14.5c0,.19-.07.37-.21.51h-.01c-.13.14-.32.22-.5.22H2.18Zm18.13,0c-.4,0-.73-.32-.73-.73v-14.5c0-.4.32-.73.73-.73h15.23c.4,0,.73.32.73.73v14.5c0,.19-.07.36-.2.5h-.02s-.01.02-.01.02c-.13.13-.31.2-.5.21h-15.23Zm21.53-6.02l-4.13,4.13v-13.34c0-.31-.07-.61-.2-.89l4.55-3.98v13.57c0,.19-.08.37-.22.51Z"/>
      <path id="Shape-2" data-name="Shape" class="cls-2" d="m16.68,16.68h-2.9c-.8,0-1.45.65-1.45,1.45v1.45c0,.8.65,1.45,1.45,1.45h2.9c.8,0,1.45-.65,1.45-1.45v-1.45c0-.8-.65-1.45-1.45-1.45Zm-2.9,2.9v-1.45h2.9v1.45h-2.9Z"/>
      <path id="Shape-3" data-name="Shape" class="cls-2" d="m25.38,16.68h-2.18c-.4,0-.73.32-.73.73s.32.73.73.73h2.18c.4,0,.73-.32.73-.73s-.32-.73-.73-.73Z"/>
      <path id="Shape-4" data-name="Shape" class="cls-2" d="m25.38,19.58h-2.18c-.4,0-.73.32-.73.73s.32.73.73.73h2.18c.4,0,.73-.32.73-.73s-.32-.73-.73-.73Z"/>
      <path id="Shape-5" data-name="Shape" class="cls-2" d="m7.25,34.08h-2.9c-.8,0-1.45.65-1.45,1.45v1.45c0,.8.65,1.45,1.45,1.45h2.9c.8,0,1.45-.65,1.45-1.45v-1.45c0-.8-.65-1.45-1.45-1.45Zm-2.9,2.9v-1.45h2.9v1.45h-2.9Z"/>
      <path id="Shape-6" data-name="Shape" class="cls-2" d="m15.95,34.08h-2.18c-.4,0-.73.32-.73.73s.32.73.73.73h2.18c.4,0,.73-.32.73-.73s-.32-.73-.73-.73Z"/>
      <path id="Shape-7" data-name="Shape" class="cls-2" d="m15.95,36.98h-2.18c-.4,0-.73.32-.73.73s.32.73.73.73h2.18c.4,0,.73-.32.73-.73s-.32-.73-.73-.73Z"/>
      <path id="Shape-8" data-name="Shape" class="cls-2" d="m25.38,34.08h-2.9c-.8,0-1.45.65-1.45,1.45v1.45c0,.8.65,1.45,1.45,1.45h2.9c.8,0,1.45-.65,1.45-1.45v-1.45c0-.8-.65-1.45-1.45-1.45Zm-2.9,2.9v-1.45h2.9v1.45h-2.9Z"/>
      <path id="Shape-9" data-name="Shape" class="cls-2" d="m34.08,34.08h-2.18c-.4,0-.73.32-.73.73s.32.73.73.73h2.18c.4,0,.73-.32.73-.73s-.32-.73-.73-.73Z"/>
      <path id="Shape-10" data-name="Shape" class="cls-2" d="m34.08,36.98h-2.18c-.4,0-.73.32-.73.73s.32.73.73.73h2.18c.4,0,.73-.32.73-.73s-.32-.73-.73-.73Z"/>
    </g>
  </g>
</svg>