<?xml version="1.0" encoding="UTF-8"?>
<svg id="Camada_1" data-name="Camada 1" xmlns="http://www.w3.org/2000/svg" viewBox="0 0 48.22 48.22">
  <defs>
    <style>
      .cls-1 {
        fill: none;
      }

      .cls-2 {
        fill: #1e1e1e;
      }

      .cls-3 {
        fill: #ebad04;
      }
    </style>
  </defs>
  <path class="cls-1" d="m38.58,8.04c0-1.33-1.08-2.41-2.41-2.41h-2.41v.8c0,1.33-1.08,2.41-2.41,2.41s-2.41-1.08-2.41-2.41v-.8h-6.43v.8c0,1.33-1.08,2.41-2.41,2.41s-2.41-1.08-2.41-2.41v-.8h-6.43v.8c0,1.33-1.08,2.41-2.41,2.41s-2.41-1.08-2.41-2.41v-.8h-2.41c-1.33,0-2.41,1.08-2.41,2.41v2.41h36.97v-2.41Z"/>
  <rect class="cls-1" x="22.5" y="16.88" width="3.21" height="3.21"/>
  <path class="cls-1" d="m31.34,7.23c.44,0,.8-.36.8-.8V2.41c0-.44-.36-.8-.8-.8s-.8.36-.8.8v4.02c0,.44.36.8.8.8Z"/>
  <path class="cls-1" d="m34.56,22.5c-6.66,0-12.06,5.4-12.06,12.06s5.4,12.06,12.06,12.06c6.66,0,12.05-5.4,12.06-12.06,0-6.66-5.4-12.06-12.06-12.06Zm0,22.5c-5.77,0-10.45-4.68-10.45-10.45s4.68-10.45,10.45-10.45c5.77,0,10.44,4.68,10.45,10.45,0,5.77-4.68,10.45-10.45,10.45Z"/>
  <path class="cls-1" d="m40.99,34.56c0-.44.36-.8.8-.8h1.57c-.39-4.24-3.75-7.6-8-8v1.57c0,.44-.36.8-.8.8s-.8-.36-.8-.8v-1.57c-4.24.39-7.6,3.75-8,8h1.57c.44,0,.8.36.8.8s-.36.8-.8.8h-1.57c.39,4.24,3.75,7.6,8,8v-1.57c0-.44.36-.8.8-.8s.8.36.8.8v1.57c4.24-.39,7.6-3.75,8-8h-1.57c-.44,0-.8-.36-.8-.8Zm-3.44,2.98c-.31.32-.82.32-1.14.01h-.01s-2.41-2.42-2.41-2.42c-.15-.15-.24-.35-.24-.57v-4.02c0-.44.36-.8.8-.8s.8.36.8.8v3.69l2.18,2.18c.32.31.32.82.01,1.14Z"/>
  <path class="cls-1" d="m8.84,7.23c.44,0,.8-.36.8-.8V2.41c0-.44-.36-.8-.8-.8s-.8.36-.8.8v4.02c0,.44.36.8.8.8Z"/>
  <path class="cls-1" d="m20.09,7.23c.44,0,.8-.36.8-.8V2.41c0-.44-.36-.8-.8-.8s-.8.36-.8.8v4.02c0,.44.36.8.8.8Z"/>
  <path class="cls-3" d="m34.56,19.29c.44,0,.8-.36.8-.8v-2.41h0c0-.44-.36-.8-.8-.8h-4.82c-.44,0-.8.36-.8.8v3.15c0,.44.36.8.8.8s.8-.36.8-.8v-2.35h3.21v1.61c0,.44.36.8.8.8Z"/>
  <path class="cls-2" d="m20.09,40.99H4.02c-1.33,0-2.41-1.08-2.41-2.41V12.06h36.97v7.23c0,.44.36.8.8.8s.8-.36.8-.8v-11.25c0-2.22-1.8-4.02-4.02-4.02h-2.41v-1.61c0-1.33-1.08-2.41-2.41-2.41s-2.41,1.08-2.41,2.41v1.61h-6.43v-1.61c0-1.33-1.08-2.41-2.41-2.41s-2.41,1.08-2.41,2.41v1.61h-6.43v-1.61c0-1.33-1.08-2.41-2.41-2.41s-2.41,1.08-2.41,2.41v1.61h-2.41C1.8,4.02,0,5.82,0,8.04v30.54c0,2.22,1.8,4.02,4.02,4.02h16.07c.44,0,.8-.36.8-.8s-.36-.8-.8-.8ZM30.54,2.41c0-.44.36-.8.8-.8s.8.36.8.8v4.02c0,.44-.36.8-.8.8s-.8-.36-.8-.8V2.41Zm-11.25,0c0-.44.36-.8.8-.8s.8.36.8.8v4.02c0,.44-.36.8-.8.8s-.8-.36-.8-.8V2.41Zm-11.25,0c0-.44.36-.8.8-.8s.8.36.8.8v4.02c0,.44-.36.8-.8.8s-.8-.36-.8-.8V2.41ZM1.61,8.04c0-1.33,1.08-2.41,2.41-2.41h2.41v.8c0,1.33,1.08,2.41,2.41,2.41s2.41-1.08,2.41-2.41v-.8h6.43v.8c0,1.33,1.08,2.41,2.41,2.41s2.41-1.08,2.41-2.41v-.8h6.43v.8c0,1.33,1.08,2.41,2.41,2.41s2.41-1.08,2.41-2.41v-.8h2.41c1.33,0,2.41,1.08,2.41,2.41v2.41H1.61v-2.41Z"/>
  <path class="cls-3" d="m26.52,15.27h-4.82c-.44,0-.8.36-.8.8h0v4.82c0,.44.36.8.8.8h4.82c.44,0,.8-.36.8-.8v-4.82c0-.44-.36-.8-.8-.8h0Zm-.8,4.82h-3.21v-3.21h3.21v3.21Z"/>
  <path class="cls-3" d="m10.45,31.34h-4.82c-.44,0-.8.36-.8.8v4.82c0,.44.36.8.8.8h4.82c.44,0,.8-.36.8-.8h0v-4.82c0-.44-.36-.8-.8-.8h0Zm-.8,4.82h-3.21v-3.21h3.21v3.21Z"/>
  <path class="cls-2" d="m34.56,24.11c-5.77,0-10.45,4.68-10.45,10.45s4.68,10.45,10.45,10.45,10.45-4.68,10.45-10.45c0-5.77-4.68-10.44-10.45-10.45Zm.8,19.25v-1.57c0-.44-.36-.8-.8-.8s-.8.36-.8.8v1.57c-4.24-.39-7.6-3.75-8-8h1.57c.44,0,.8-.36.8-.8s-.36-.8-.8-.8h-1.57c.39-4.24,3.75-7.6,8-8v1.57c0,.44.36.8.8.8s.8-.36.8-.8v-1.57c4.24.39,7.6,3.75,8,8h-1.57c-.44,0-.8.36-.8.8s.36.8.8.8h1.57c-.39,4.24-3.75,7.6-8,8Z"/>
  <path class="cls-3" d="m19.29,28.93v-4.82c0-.44-.36-.8-.8-.8h-4.82c-.44,0-.8.36-.8.8h0v4.82c0,.44.36.8.8.8h4.82c.44,0,.8-.36.8-.8h0Zm-1.61-.8h-3.21v-3.21h3.21v3.21Z"/>
  <path class="cls-2" d="m34.56,20.9c-7.55,0-13.66,6.12-13.66,13.66s6.12,13.66,13.66,13.66,13.66-6.12,13.66-13.66c0-7.54-6.12-13.65-13.66-13.66Zm0,25.72c-6.66,0-12.06-5.4-12.06-12.06s5.4-12.06,12.06-12.06,12.06,5.4,12.06,12.06c0,6.66-5.4,12.05-12.06,12.06Z"/>
  <path class="cls-3" d="m35.36,34.23v-3.69c0-.44-.36-.8-.8-.8s-.8.36-.8.8v4.02c0,.21.08.42.24.57l2.41,2.41h.01c.32.32.83.32,1.14,0,.31-.32.31-.83-.01-1.14l-2.18-2.18Z"/>
  <path class="cls-3" d="m11.25,28.93v-4.82c0-.44-.36-.8-.8-.8h-4.82c-.44,0-.8.36-.8.8h0v4.82c0,.44.36.8.8.8h4.82c.44,0,.8-.36.8-.8h0Zm-1.61-.8h-3.21v-3.21h3.21v3.21Z"/>
  <path class="cls-3" d="m18.49,31.34h-4.82c-.44,0-.8.36-.8.8v4.82c0,.44.36.8.8.8h4.82c.44,0,.8-.36.8-.8h0v-4.82c0-.44-.36-.8-.8-.8h0Zm-.8,4.82h-3.21v-3.21h3.21v3.21Z"/>
  <path class="cls-3" d="m19.29,16.07c0-.44-.36-.8-.8-.8h-4.82c-.44,0-.8.36-.8.8h0v4.82c0,.44.36.8.8.8h4.82c.44,0,.8-.36.8-.8v-4.82Zm-1.61,4.02h-3.21v-3.21h3.21v3.21Z"/>
</svg>