<?xml version="1.0" encoding="UTF-8"?>
<svg id="Camada_1" data-name="Camada 1" xmlns="http://www.w3.org/2000/svg" viewBox="0 0 49.95 33.46">
  <defs>
    <style>
      .cls-1 {
        fill: #1e1e1e;
      }

      .cls-2 {
        fill: #ebad04;
      }
    </style>
  </defs>
  <path class="cls-1" d="m48.91,0H15.61c-.57,0-1.04.47-1.04,1.04v10.41c0,.57.47,1.04,1.04,1.04s1.04-.47,1.04-1.04V2.08h31.22v18.73h-21.85c-.57,0-1.04.47-1.04,1.04s.47,1.04,1.04,1.04h22.89c.57,0,1.04-.47,1.04-1.04V1.04c0-.57-.47-1.04-1.04-1.04Z"/>
  <path class="cls-1" d="m37.42,25.76c-.12-.45-.53-.76-1-.76h-6.32s-4.68.37-4.68.37c-1.91.29-3.57-1.22-3.57-3.09,0-.72.23-1.41.65-2l3.27-4.5c.91-1.37.73-3.21-.43-4.37-1.31-1.31-3.59-1.31-4.9,0l-5.28,5.28c-2.79.16-5.26,1.77-6.51,4.29-.03.06-.06.13-.07.2l-2.3,8.73c-.08.29-.03.59.14.83.16.25.42.41.71.46l13.4,2.05c.47.14,1.15.2,2,.2,1.62,0,4.92-.3,6.2-1.41l8.24-5.12c.4-.25.58-.72.45-1.17Zm-9.87,4.57c-.07.04-.13.09-.19.15-.41.41-2.65.9-4.83.9-.92,0-1.33-.1-1.56-.15l-12.39-1.91,1.98-7.5c.99-1.89,2.91-3.06,5.05-3.06.28,0,.54-.11.74-.3l5.57-5.57c.52-.52,1.43-.52,1.96,0,.47.46.54,1.2.2,1.71l-3.25,4.46c-.68.94-1.05,2.06-1.05,3.22,0,2.87,2.33,5.2,5.19,5.2.25,0,.49-.02.68-.05l4.53-.36h2.59l-5.22,3.24Z"/>
  <path class="cls-1" d="m10.08,19.05c-1.82-1.73-7.78-2.27-8.96-2.36-.3-.02-.57.08-.79.27-.21.2-.33.47-.33.76v14.57c0,.57.47,1.04,1.04,1.04,2.85,0,6.6-2.13,6.76-2.22.23-.13.4-.34.48-.59.07-.21,1.65-5.23,2.12-10.63.03-.32-.09-.63-.32-.85Zm-3.67,10.45c-.96.51-2.77,1.34-4.33,1.64v-12.27c2.25.25,5.01.77,6.19,1.43-.43,4.12-1.5,7.99-1.86,9.21Z"/>
  <path class="cls-2" d="m39.37,9.87c-.42-1.9-1.56-3.52-3.2-4.56-3.39-2.15-7.9-1.16-10.06,2.23-.31.48-.16,1.13.32,1.44.48.31,1.13.17,1.44-.32,1.54-2.42,4.76-3.14,7.18-1.6,1.17.75,1.99,1.9,2.29,3.26.3,1.36.06,2.75-.69,3.92-1.54,2.42-4.76,3.14-7.18,1.6-.48-.31-1.12-.17-1.44.32-.31.48-.16,1.13.32,1.44,1.21.77,2.56,1.14,3.9,1.14,2.41,0,4.77-1.19,6.16-3.37,1.04-1.64,1.39-3.59.97-5.49Z"/>
  <path class="cls-2" d="m44.75,6.24c-.57,0-1.04-.47-1.04-1.04s-.47-1.04-1.04-1.04h-2.08c-.57,0-1.04.47-1.04,1.04s.47,1.04,1.04,1.04h1.22c.31.89,1.02,1.59,1.9,1.9v6.6c-.89.31-1.59,1.02-1.9,1.9h-1.22c-.57,0-1.04.47-1.04,1.04s.47,1.04,1.04,1.04h2.08c.57,0,1.04-.47,1.04-1.04s.47-1.04,1.04-1.04,1.04-.47,1.04-1.04V7.28c0-.57-.47-1.04-1.04-1.04Z"/>
  <path class="cls-2" d="m23.93,4.16h-2.08c-.57,0-1.04.47-1.04,1.04s-.47,1.04-1.04,1.04-1.04.47-1.04,1.04.47,1.04,1.04,1.04c1.36,0,2.51-.87,2.94-2.08h1.22c.57,0,1.04-.47,1.04-1.04s-.47-1.04-1.04-1.04Z"/>
</svg>