<?xml version="1.0" encoding="UTF-8"?>
<svg id="Camada_1" data-name="Camada 1" xmlns="http://www.w3.org/2000/svg" viewBox="0 0 46.85 46.85">
  <defs>
    <style>
      .cls-1 {
        fill: #1e1e1e;
      }

      .cls-2 {
        fill: #ebad04;
      }
    </style>
  </defs>
  <path class="cls-2" d="m7.68,3.77c.38-.38.38-1,0-1.38s-1-.38-1.38,0C2.24,6.45,0,11.84,0,17.57c0,.54.44.98.98.98s.98-.44.98-.98C1.95,12.36,3.99,7.47,7.68,3.77Z"/>
  <path class="cls-2" d="m45.23,9.36c-1.08-2.61-2.65-4.96-4.68-7-.38-.38-1-.38-1.38,0-.38.38-.38,1,0,1.38,1.84,1.86,3.28,4,4.26,6.37.98,2.36,1.48,4.87,1.48,7.46,0,.54.44.98.98.98s.98-.44.98-.98c0-2.84-.55-5.61-1.63-8.21Z"/>
  <path class="cls-2" d="m4.88,18.55c.54,0,.98-.44.98-.98,0-4.16,1.63-8.09,4.58-11.04.38-.38.38-1,0-1.38s-1-.38-1.38,0c-3.32,3.32-5.15,7.73-5.15,12.42,0,.54.44.98.98.98Z"/>
  <path class="cls-2" d="m39.82,11.6c.78,1.89,1.18,3.9,1.18,5.97,0,.54.44.98.98.98s.98-.44.98-.98c0-2.33-.45-4.59-1.33-6.72-.88-2.13-2.17-4.05-3.82-5.72-.38-.38-1-.38-1.38,0-.38.38-.38,1,0,1.38,1.47,1.49,2.62,3.2,3.4,5.09Z"/>
  <path class="cls-1" d="m39.18,32.23c-.84-.89-1.3-2.04-1.3-3.22v-11.44c0-3.65-1.51-7.09-4.25-9.69-1.79-1.67-3.98-2.85-6.36-3.47.02-.17.06-.33.06-.5,0-2.15-1.75-3.9-3.9-3.9s-3.9,1.75-3.9,3.9c0,.19.04.37.06.55-6.04,1.71-10.61,7.26-10.61,13.65v10.9c0,1.18-.46,2.33-1.3,3.22l-5.19,5.49c-.54.57-.68,1.36-.37,2.07.31.73,1.04,1.2,1.86,1.2h11.94c.88,3.39,3.95,5.86,7.52,5.86s6.64-2.47,7.52-5.86h11.94c.81,0,1.54-.47,1.86-1.2.31-.71.16-1.5-.37-2.07l-5.19-5.5ZM23.43,1.95c1.08,0,1.95.87,1.95,1.95,0,.05-.03.08-.03.12-.49-.06-.98-.11-1.48-.12h-.41c-.66,0-1.31.06-1.95.14,0-.05-.03-.09-.03-.15,0-1.08.88-1.95,1.95-1.95Zm0,42.95c-2.5,0-4.7-1.62-5.51-3.9h11.02c-.81,2.29-3.01,3.9-5.51,3.9Zm19.46-5.86h-26.28s-.05,0-.07,0c0,0,0,0-.01,0H3.9s5.19-5.49,5.19-5.49c1.18-1.26,1.84-2.88,1.84-4.56v-10.9c0-6.64,5.74-12.25,12.53-12.25h.36c3.19.1,6.2,1.32,8.48,3.44,2.34,2.23,3.64,5.17,3.64,8.27v11.44c0,1.68.65,3.3,1.84,4.56l5.19,5.45s-.02.02-.06.02Z"/>
  <path class="cls-1" d="m19.38,8.63c-1.25.53-2.38,1.27-3.36,2.22-.98.95-1.75,2.05-2.29,3.27-.57,1.27-.85,2.61-.85,3.99,0,.54.44.98.98.98s.98-.44.98-.98c0-1.1.23-2.17.69-3.19.44-.99,1.07-1.89,1.87-2.66.8-.78,1.73-1.39,2.75-1.82.5-.21.73-.78.52-1.28-.21-.5-.78-.73-1.28-.52Z"/>
</svg>