<?xml version="1.0" encoding="UTF-8"?>
<svg id="Camada_1" data-name="Camada 1" xmlns="http://www.w3.org/2000/svg" viewBox="0 0 45.95 45.98">
  <defs>
    <style>
      .cls-1 {
        fill: #231f20;
      }

      .cls-2 {
        fill: #ebad04;
      }
    </style>
  </defs>
  <path class="cls-1" d="m32.93,41.37h-12.26c-.42,0-.77.34-.77.77v3.06c0,.42.34.77.77.77s.77-.34.77-.77v-2.3h10.73v2.3c0,.42.34.77.77.77s.77-.34.77-.77v-3.06c0-.42-.34-.77-.77-.77Z"/>
  <path class="cls-1" d="m29.87,22.22h1.53c.42,0,.77-.34.77-.77v-.77c0-1.69-1.37-3.06-3.06-3.06h-4.6c-1.69,0-3.06,1.37-3.06,3.06v.77c0,.42.34.77.77.77h1.53c1.21,0,2.34-.57,3.06-1.53.72.96,1.86,1.53,3.06,1.53Zm-.77-3.06c.85,0,1.53.69,1.53,1.53h-.77c-.97,0-1.84-.61-2.17-1.53h1.4Zm-5.36,1.53h-.77c0-.85.69-1.53,1.53-1.53h1.4c-.33.92-1.19,1.53-2.17,1.53Z"/>
  <path class="cls-1" d="m31.4,15.32c0,.42-.34.77-.77.77s-.77-.34-.77-.77.34-.77.77-.77.77.34.77.77Z"/>
  <path class="cls-1" d="m23.74,15.32c0,.42-.34.77-.77.77s-.77-.34-.77-.77.34-.77.77-.77.77.34.77.77Z"/>
  <path class="cls-1" d="m39.06,26.05h-7.66v-1.37c2.17-1.4,3.59-3.72,3.83-6.29h.77c1.27,0,2.3-1.03,2.3-2.3v-1.53c0-.79-.41-1.52-1.08-1.94.69-.71,1.08-1.67,1.08-2.66v-1.53c0-4.65-3.77-8.43-8.43-8.43h-13.02c-.85,0-1.53.69-1.53,1.53v8.43c0,.99.39,1.95,1.08,2.66-.67.42-1.08,1.15-1.08,1.94v1.53c0,1.27,1.03,2.3,2.3,2.3h.8c.24,2.57,1.63,4.88,3.79,6.29v1.37h-7.66c-3.47,0-6.4,2.59-6.83,6.04-.03.21.04.42.17.58.13.16.33.26.54.28h.09c.39,0,.72-.29.77-.67.34-2.66,2.59-4.66,5.27-4.69h.77v1.53c0,.42.34.77.77.77s.77-.34.77-.77v-1.53h1.53v9.96c0,.42-.34.77-.77.77s-.77-.34-.77-.77-.34-.77-.77-.77-.77.34-.77.77c0,1.27,1.03,2.3,2.3,2.3s2.3-1.03,2.3-2.3v-.77h13.79v.77c0,1.27,1.03,2.3,2.3,2.3.69,0,1.34-.32,1.78-.86l.52,6.28c.03.4.37.71.77.7h.06c.2-.02.39-.11.52-.27.13-.16.2-.36.18-.56l-.77-9.19c-.03-.4-.37-.71-.77-.7v-7.66h.77c2.96,0,5.36,2.4,5.36,5.36v12.26c0,.42.34.77.77.77s.77-.34.77-.77v-12.26c0-3.81-3.09-6.9-6.9-6.9Zm-2.3-9.96c0,.42-.34.77-.77.77h-.77v-3.06h.77c.42,0,.77.34.77.77v1.53Zm-19.92,0v-1.53c0-.42.34-.77.77-.77h.77v3.06h-.77c-.42,0-.77-.34-.77-.77Zm3.06,1.53v-7.34c.69.24,1.39.46,2.09.65.39.08.78-.16.89-.54.11-.39-.1-.79-.48-.93-.97-.28-1.93-.58-2.86-.93l-.15-.06c-.24-.09-.5-.05-.7.09-.21.14-.33.38-.33.63v2.93c-.92-.32-1.53-1.19-1.53-2.16V1.53h13.02c3.81,0,6.9,3.09,6.9,6.9v1.53c0,.97-.62,1.84-1.53,2.16v-.63c0-.42-.34-.77-.77-.77h-2.8c-2.1,0-4.19-.19-6.25-.57-.42-.08-.83.21-.9.63-.08.42.2.83.63.9,2.15.4,4.34.6,6.53.6h2.04v5.36c0,3.81-3.09,6.9-6.9,6.9s-6.9-3.09-6.9-6.9v-.02Zm6.9,8.43c1.05,0,2.09-.2,3.06-.58v1.35c0,1.69-1.37,3.06-3.06,3.06s-3.06-1.37-3.06-3.06v-1.35c.98.38,2.02.58,3.06.58Zm-6.9,9.19v-7.66h2.37c.39,2.2,2.3,3.8,4.53,3.8s4.14-1.6,4.53-3.8h2.37v7.66h-13.79Zm16.85,2.3c0,.42-.34.77-.77.77s-.77-.34-.77-.77v-9.96h1.53v9.96Z"/>
  <path class="cls-2" d="m11.61,40.73c-.37.39-.64.87-.77,1.39l-1.33-1.33,4.39-4.39c1.5-1.5,1.5-3.92,0-5.42-.3-.3-.78-.3-1.08,0l-6.57,6.56-2.22-2.22c-.69-.69-.86-1.74-.44-2.61l2.3,2.3c.3.3.78.3,1.08,0,.14-.14.23-.34.23-.54s-.08-.4-.23-.54l-2.93-2.93c-.3-.3-.78-.3-1.08,0-1.5,1.5-1.5,3.92,0,5.42l4.39,4.39-1.33,1.35c-.13-.52-.39-1-.77-1.39-1.21-1.16-3.12-1.16-4.34,0-1.2,1.2-1.2,3.14,0,4.34s3.14,1.2,4.34,0l3.18-3.21,3.19,3.19c1.2,1.2,3.14,1.2,4.34,0,1.2-1.2,1.2-3.14,0-4.34-1.21-1.16-3.12-1.16-4.34,0Zm-9.64,3.25c-.44-.37-.63-.96-.49-1.52s.57-1,1.13-1.13c.56-.13,1.15.06,1.52.49.59.6.59,1.56,0,2.16-.6.59-1.56.59-2.16,0Zm11.28-11.28c.42.88.24,1.92-.44,2.61l-4.34,4.34-1.08-1.09,5.86-5.86Zm1.61,11.28c-.6.59-1.56.59-2.16,0-.44-.44-.57-1.1-.34-1.67.24-.57.8-.95,1.42-.95s1.18.37,1.42.95c.24.57.1,1.23-.34,1.67Z"/>
</svg>