<?xml version="1.0" encoding="UTF-8"?>
<svg id="Camada_1" data-name="Camada 1" xmlns="http://www.w3.org/2000/svg" viewBox="0 0 46.83 46.83">
  <defs>
    <style>
      .cls-1 {
        fill: #1e1e1e;
      }

      .cls-2 {
        fill: #ebad04;
      }
    </style>
  </defs>
  <g id="Out_line" data-name="Out line">
    <path class="cls-1" d="m42.93,7.81h-13.27v1.56h13.27c1.29,0,2.34,1.05,2.34,2.34v22.64h-1.56V12.49c0-.86-.7-1.56-1.56-1.56h-12.49v1.56h12.49v21.86H4.68V12.49s0,0,0,0v-1.56c-.86,0-1.56.7-1.56,1.56v21.86h-1.56V11.71c0-1.29,1.05-2.34,2.34-2.34h.78v-1.56h-.78c-2.15,0-3.9,1.75-3.9,3.9v24.98c0,2.15,1.75,3.9,3.9,3.9h15.61v2.34c0,1.29-1.05,2.34-2.34,2.34-.43,0-.78.35-.78.78s.35.78.78.78h12.49c.43,0,.78-.35.78-.78s-.35-.78-.78-.78c-1.29,0-2.34-1.05-2.34-2.34v-2.34h15.61c2.15,0,3.9-1.75,3.9-3.9V11.71c0-2.15-1.75-3.9-3.9-3.9Zm-16.39,37.47h-6.25c.51-.67.78-1.5.78-2.34v-2.34h4.68v2.34c0,.84.27,1.67.78,2.34h0Zm16.39-6.24H3.9c-1.29,0-2.34-1.05-2.34-2.34v-.78h43.71v.78c0,1.29-1.05,2.34-2.34,2.34Z"/>
    <circle class="cls-1" cx="23.42" cy="37.47" r=".78"/>
    <path class="cls-2" d="m7.81,1.56h12.49v5.46c0,.43.35.78.78.78h5.46v9.37h1.56V7.03c0-.21-.08-.41-.23-.55L21.63.23C21.48.08,21.28,0,21.08,0H7.03c-.43,0-.78.35-.78.78h0v28.1h1.56V1.56Zm14.05,1.1l3.58,3.58h-3.58v-3.58Z"/>
    <path class="cls-2" d="m9.37,3.12h3.12v1.56h-3.12v-1.56Z"/>
    <path class="cls-2" d="m9.37,6.24h3.12v1.56h-3.12v-1.56Z"/>
    <path class="cls-2" d="m10.93,9.37h4.68v1.56h-4.68v-1.56Z"/>
    <path class="cls-2" d="m17.17,9.37h7.81v1.56h-7.81v-1.56Z"/>
    <path class="cls-2" d="m9.37,12.49h4.68v1.56h-4.68v-1.56Z"/>
    <path class="cls-2" d="m15.61,12.49h4.68v1.56h-4.68v-1.56Z"/>
    <path class="cls-2" d="m21.86,12.49h3.12v1.56h-3.12v-1.56Z"/>
    <path class="cls-2" d="m9.37,15.61h9.37v1.56h-9.37v-1.56Z"/>
    <path class="cls-2" d="m20.29,15.61h4.68v1.56h-4.68v-1.56Z"/>
    <path class="cls-2" d="m9.37,18.73h6.24v1.56h-6.24v-1.56Z"/>
    <path class="cls-1" d="m10.15,26.54c-.43,0-.78.35-.78.78h0v4.68c0,.43.35.78.78.78h3.12c.43,0,.78-.35.78-.78h0v-4.68c0-.43-.35-.78-.78-.78h-3.12Zm2.34,4.68h-1.56v-3.12h1.56v3.12Z"/>
    <path class="cls-1" d="m15.61,32.78h3.12c.43,0,.78-.35.78-.78h0v-7.03c0-.43-.35-.78-.78-.78h-3.12c-.43,0-.78.35-.78.78h0v7.03c0,.43.35.78.78.78h0Zm.78-7.03h1.56v5.46h-1.56v-5.46Z"/>
    <path class="cls-1" d="m21.08,32.78h3.12c.43,0,.78-.35.78-.78h0v-9.37c0-.43-.35-.78-.78-.78h-3.12c-.43,0-.78.35-.78.78h0v9.37c0,.43.35.78.78.78h0Zm.78-9.37h1.56v7.81h-1.56v-7.81Z"/>
    <path class="cls-1" d="m33.56,30.44c3.88,0,7.03-3.15,7.03-7.03s-3.15-7.03-7.03-7.03-7.03,3.15-7.03,7.03c0,3.88,3.15,7.02,7.03,7.03Zm-3.27-2.65l3.27-3.27,3.27,3.27c-1.94,1.45-4.6,1.45-6.54,0Zm7.64-1.1l-3.27-3.27,3.27-3.27c1.45,1.94,1.45,4.6,0,6.54Zm-4.37-8.73c1.18,0,2.33.38,3.27,1.09l-7.64,7.64c-1.81-2.41-1.32-5.84,1.1-7.64.95-.71,2.09-1.09,3.28-1.09Z"/>
  </g>
</svg>