<?xml version="1.0" encoding="UTF-8"?>
<svg id="Camada_1" data-name="Camada 1" xmlns="http://www.w3.org/2000/svg" viewBox="0 0 50.33 50.25">
  <defs>
    <style>
      .cls-1 {
        fill: #1e1e1e;
      }

      .cls-2 {
        fill: #ebad04;
      }
    </style>
  </defs>
  <path class="cls-2" d="m46.29,3.63h-6.44c-.41,0-.74.33-.74.74s.33.74.74.74h6.44c.41,0,.74-.33.74-.74s-.33-.74-.74-.74Z"/>
  <path class="cls-2" d="m36.2,5.11h.78c.41,0,.74-.33.74-.74s-.33-.74-.74-.74h-.78c-.41,0-.74.33-.74.74s.33.74.74.74Z"/>
  <path class="cls-2" d="m36.2,8.58h10.09c.41,0,.74-.33.74-.74s-.33-.74-.74-.74h-10.09c-.41,0-.74.33-.74.74s.33.74.74.74Z"/>
  <path class="cls-1" d="m38.96,46.42v-3.66c0-2.8-1-5.48-2.81-7.6l.12-2.25c.09-1.71-1.27-3.17-3-3.17h-1.95v-7.22s0-.03,0-.05v-1.39c.5-.42.82-1.05.82-1.75v-3.05c0-.71-.33-1.34-.83-1.76-.23-6.17-5.34-11.12-11.56-11.12s-11.32,4.95-11.56,11.12c-.51.42-.83,1.05-.83,1.76v3.05c0,.7.32,1.33.82,1.75v8.65h-1.95c-1.72,0-3.09,1.44-3,3.17l.12,2.25c-1.82,2.12-2.81,4.8-2.81,7.6v3.66s0,.02,0,.02c-.34.4-.54.92-.54,1.49,0,1.28,1.04,2.32,2.32,2.32h34.85c1.28,0,2.32-1.04,2.32-2.32,0-.56-.2-1.08-.54-1.49,0,0,0-.02,0-.02h0Zm-1.47-3.66v2.87c-.1-.01-.21-.02-.31-.02h-1.6l.44-8.11c.95,1.58,1.47,3.39,1.47,5.26h0Zm-12.35-13.01c-.44-.22-.72-.67-.72-1.17v-1.91h.37c.81,0,1.51-.48,1.83-1.17h1.68c.56,0,1.09-.16,1.54-.42v4.67s-4.71,0-4.71,0Zm-15.49-9.6c-.44,0-.8-.36-.8-.8v-3.05c0-.44.36-.8.8-.8h1.65v4.15s0,0,0,.01c0,.17.01.33.02.49h-1.67Zm3.23.6s0-.01,0-.02c-.18-1.05-.07-1.46-.1-5.24h1.45c4.14,0,7.36-1.48,9.15-4.17.49,1.17,1.46,2.77,3.37,3.87v4.45c-.02,1.15-.32,2.27-.88,3.28-.31-.19-.67-.31-1.07-.31h-1.87c-1.12,0-2.03.91-2.03,2.03,0,.65.31,1.23.79,1.6-2.35.68-4.98.1-6.84-1.74-1.04-1.03-1.72-2.34-1.97-3.75h0Zm16.99-5.26c.44,0,.8.36.8.8v3.05c0,.44-.36.8-.8.8h-1.67c.01-.16.02-.33.02-.49,0,0,0,0,0-.01v-4.15h1.65Zm-4.52,9.15c0,.3-.25.55-.55.55h-1.87c-.3,0-.55-.25-.55-.55s.25-.55.55-.55h1.87c.31,0,.55.25.55.55h0Zm2.6-3.01h1.89v.88c-.01.84-.7,1.52-1.54,1.52h-1.39c.47-.75.82-1.55,1.03-2.4Zm-11.39,5.74c2,.82,4.31.84,6.39,0v1.22c0,.41.09.81.26,1.17h-6.9c.16-.36.26-.75.26-1.17v-1.21Zm3.19-22.48c5.23,0,9.56,4.02,10.04,9.13h-2.14c-1.89-1.02-2.74-2.62-3.12-3.8-.14-.44-.52-.75-.98-.79-.46-.04-.89.19-1.12.59-1.43,2.58-4.35,4-8.22,4h-4.51c.49-5.11,4.81-9.13,10.04-9.13Zm-10.09,16.74h1.89c.38,1.48,1.15,2.83,2.26,3.93.39.39.82.73,1.27,1.04v1.99c0,.5-.28.94-.72,1.17h-4.71v-8.12Zm-6.18,15.87l.15,2.7c.02.41.37.72.78.7.41-.02.72-.37.7-.78l-.4-7.28c-.05-.87.64-1.61,1.53-1.61h27.04c.87,0,1.57.73,1.53,1.61l-.69,12.78h-11.56c.13-.88.51-1.7,1.12-2.38l.02-.02c2.23-2.5,1.56-6.41-1.32-8.05-.74-.42-1.68.11-1.68.98v3.35c0,.15-.13.28-.28.28h-1.25c-.15,0-.28-.13-.28-.28v-3.35c0-.87-.94-1.4-1.68-.98-2.88,1.64-3.56,5.54-1.32,8.05l.02.02c.61.67.99,1.5,1.12,2.37H5.4l-.11-2.06c-.02-.41-.37-.72-.78-.7-.41.02-.72.37-.7.78l.11,1.98h-1.6c-.11,0-.21,0-.31.02v-2.87c0-1.87.51-3.69,1.47-5.26h0Zm15.01,8.11c-.14-1.24-.66-2.42-1.51-3.36l-.02-.02c-1.43-1.6-1.23-4.07.43-5.42v2.68c0,.97.79,1.75,1.75,1.75h1.25c.97,0,1.75-.79,1.75-1.75v-2.68c1.66,1.36,1.86,3.82.43,5.42l-.02.02c-.85.94-1.37,2.12-1.51,3.36h-2.56Zm18.68,3.17H2.32c-.47,0-.85-.38-.85-.85s.38-.85.85-.85h34.85c.47,0,.85.38.85.85s-.38.85-.85.85Z"/>
  <path class="cls-2" d="m49.6,5.28c.41,0,.74-.33.74-.74v-1.66c0-1.59-1.29-2.88-2.88-2.88h-12.41c-1.59,0-2.88,1.29-2.88,2.88v6.21c0,1.59,1.29,2.88,2.88,2.88.28,0,.52.23.52.52v3.84c0,1.24,1.63,1.68,2.26.63l2.84-4.73c.09-.15.26-.25.44-.25h6.35c1.59,0,2.88-1.29,2.88-2.88v-1.1c0-.41-.33-.74-.74-.74s-.74.33-.74.74v1.1c0,.78-.63,1.41-1.41,1.41h-6.35c-.7,0-1.35.37-1.71.97l-2.36,3.93v-2.91c0-1.1-.89-1.99-1.99-1.99-.78,0-1.41-.63-1.41-1.41V2.88c0-.78.63-1.41,1.41-1.41h12.41c.78,0,1.41.63,1.41,1.41v1.66c0,.41.33.74.74.74h0Z"/>
</svg>