<?xml version="1.0" encoding="UTF-8"?>
<svg id="Camada_1" data-name="Camada 1" xmlns="http://www.w3.org/2000/svg" viewBox="0 0 47.22 31.9">
  <defs>
    <style>
      .cls-1 {
        fill: #fff;
      }
    </style>
  </defs>
  <path class="cls-1" d="m44.56,25.62c.7,0,1.32,0,1.94,0,.56,0,.73.17.72.74-.01.76.03,1.54-.1,2.29-.31,1.83-1.93,3.18-3.78,3.24-.16,0-.31,0-.47,0-12.85,0-25.69,0-38.54,0-1.54,0-2.77-.53-3.65-1.8C.23,29.44,0,28.69,0,27.89c0-.52,0-1.03,0-1.55,0-.55.17-.72.73-.72.62,0,1.24,0,1.93,0v-.64c0-7.62,0-15.24,0-22.86,0-.26,0-.53.06-.79C2.86.62,3.5.06,4.23,0c.17-.01.34,0,.51,0C17.33,0,29.91,0,42.49,0c.26,0,.54,0,.79.06.83.21,1.28.89,1.28,1.89,0,2.69,0,5.37,0,8.06,0,4.98,0,9.96,0,14.95v.67Zm-1.08,0c0-.2.02-.32.02-.45,0-7.73,0-15.46,0-23.2,0-.74-.2-.94-.95-.94-12.62,0-25.23,0-37.85,0-.8,0-.98.19-.98,1,0,7.68,0,15.37,0,23.05,0,.16.01.33.02.53h.61c4.17,0,8.34,0,12.51,0,.9,0,.98.08.98,1,0,.34,0,.67,0,1h11.55c0-.39,0-.75,0-1.11,0-.77.12-.89.9-.89,4.2,0,8.4,0,12.6,0h.6Zm2.64,1.1h-15.64c-.02.06-.04.09-.04.12,0,.37,0,.75,0,1.12,0,.57-.17.73-.72.73-4.07,0-8.15,0-12.22,0-.55,0-.71-.17-.71-.74,0-.42,0-.83,0-1.25H1.04c0,.33,0,.64,0,.95,0,1.91,1.26,3.19,3.16,3.19,12.94,0,25.88,0,38.82,0,.37,0,.75-.05,1.1-.16,1.56-.5,2.36-2.09,2-3.96Z"/>
  <path class="cls-1" d="m23.61,24.06c-5.71,0-11.43,0-17.14,0-.89,0-.96-.07-.96-.96,0-6.09.02-12.18-.02-18.27,0-1.43.91-2.01,2-2.01,10.74.02,21.48.02,32.22,0,1.12,0,2.01.6,2.01,2.01-.04,6.11-.02,12.21-.02,18.32,0,.82-.09.92-.91.92-5.73,0-11.46,0-17.19,0Zm17.05-1.08c0-.21,0-.36,0-.52,0-5.89,0-11.78,0-17.67,0-.77-.15-.92-.94-.92-10.74,0-21.48,0-32.23,0-.79,0-.94.15-.94.92,0,5.89,0,11.78,0,17.67v.52h34.11Z"/>
  <path class="cls-1" d="m26.43,13.63c1.31,1.31,2.55,2.55,3.78,3.78.65.65.65,1.04,0,1.69-.37.38-.75.75-1.13,1.13-.51.49-.95.5-1.46,0-1.21-1.2-2.41-2.41-3.61-3.61-.08-.08-.16-.14-.3-.26-.42.44-.82.87-1.24,1.29-.57.56-1.15.45-1.48-.29-1.45-3.21-2.88-6.43-4.33-9.64-.17-.37-.2-.73.1-1.04.31-.31.66-.29,1.03-.12,3.21,1.44,6.43,2.88,9.64,4.33.76.34.86.92.28,1.51-.4.41-.83.8-1.28,1.23Zm-4.58,3.07c.07-.03.1-.03.12-.05.39-.38.78-.77,1.16-1.15.55-.55.69-.55,1.22-.01,1.02,1.02,2.04,2.03,3.04,3.05.3.31.58.65.82.92.48-.47.88-.86,1.3-1.28-1.32-1.31-2.66-2.64-3.99-3.98-.46-.46-.45-.63,0-1.09.43-.44.87-.87,1.33-1.34-3.02-1.36-5.97-2.68-9.04-4.06,1.39,3.09,2.71,6.04,4.03,8.99Z"/>
</svg>